STARTFONT 2.1
FONT -sco-terminal-bold-r-normal--26-190-100-100-m-220-IBM437-1
SIZE 19 100 100
FONTBOUNDINGBOX 23 29 -3 -5

STARTPROPERTIES 24
FONTNAME_REGISTRY ""
FOUNDRY "sco"
FAMILY_NAME "terminal"
WEIGHT_NAME "bold"
SLANT "r"
SETWIDTH_NAME "normal"
ADD_STYLE_NAME ""
PIXEL_SIZE 26
POINT_SIZE 190
RESOLUTION_X 100
RESOLUTION_Y 100
SPACING "m"
AVERAGE_WIDTH 220
CHARSET_REGISTRY "IBM437"
CHARSET_ENCODING "1"
COPYRIGHT "Copyright Bigelow & Holmes 1986, 1985."
WEIGHT 10
X_HEIGHT 14
QUAD_WIDTH 8
FULL_NAME " -sco-terminal-bold-r-normal-sans--26-190-100-100-m-159-ibm437-1"
_XMBDFED_INFO "Edited with xmbdfed 4.4."
DEFAULT_CHAR 0
FONT_DESCENT 5
FONT_ASCENT 24
ENDPROPERTIES

CHARS 255

STARTCHAR char0
ENCODING 0
SWIDTH 871 0
DWIDTH 23 0
BBX 0 0 0 0
BITMAP
ENDCHAR

STARTCHAR char1
ENCODING 1
SWIDTH 871 0
DWIDTH 23 0
BBX 17 18 1 1
BITMAP
03E000
0E3800
180C00
300600
300600
677300
677300
C00180
C00180
C00180
CC1980
CC1980
C73180
63E300
600600
380C00
0E3800
03E000
ENDCHAR

STARTCHAR char2
ENCODING 2
SWIDTH 871 0
DWIDTH 23 0
BBX 15 18 2 0
BITMAP
0FE0
1FF0
3FF8
3FFC
739C
FBBE
FFFE
FFFE
FFFE
FFFE
F7EE
F7EE
7BDC
7C3C
3FF8
1FF8
0FF0
07E0
ENDCHAR

STARTCHAR char3
ENCODING 3
SWIDTH 871 0
DWIDTH 23 0
BBX 13 11 3 4
BITMAP
78F0
FDF8
FFF8
FFF8
FFF8
FFF8
7FF0
3FE0
1FC0
0F80
0700
ENDCHAR

STARTCHAR char4
ENCODING 4
SWIDTH 871 0
DWIDTH 23 0
BBX 14 18 3 2
BITMAP
0300
0780
0FC0
0FE0
1FE0
3FF0
3FF0
7FF8
7FF8
FFFC
7FF8
3FF0
1FF0
1FE0
0FE0
0FC0
0780
0300
ENDCHAR

STARTCHAR char5
ENCODING 5
SWIDTH 871 0
DWIDTH 23 0
BBX 12 15 4 4
BITMAP
0F00
1F80
3FC0
3FC0
3FC0
1F80
7FE0
FFF0
FFF0
FFF0
7FE0
0F00
0F00
3FC0
3FC0
ENDCHAR

STARTCHAR char6
ENCODING 6
SWIDTH 871 0
DWIDTH 23 0
BBX 11 13 4 2
BITMAP
0E00
1F00
3F80
7FC0
7FC0
FFE0
FFE0
FFE0
FFE0
7FC0
0E00
0E00
3F80
ENDCHAR

STARTCHAR char7
ENCODING 7
SWIDTH 871 0
DWIDTH 23 0
BBX 10 7 5 8
BITMAP
3F00
7F80
FFC0
FFC0
FFC0
7F80
3F00
ENDCHAR

STARTCHAR char8
ENCODING 8
SWIDTH 871 0
DWIDTH 23 0
BBX 14 29 3 -5
BITMAP
FFFC
FFFC
FFFC
FFFC
FFFC
FFFC
FFFC
FFFC
FFFC
FCFC
F87C
F03C
F03C
F03C
F87C
FCFC
FFFC
FFFC
FFFC
FFFC
FFFC
FFFC
FFFC
FFFC
FFFC
FFFC
FFFC
FFFC
FFFC
ENDCHAR

STARTCHAR char9
ENCODING 9
SWIDTH 871 0
DWIDTH 23 0
BBX 10 9 5 7
BITMAP
3F00
7380
E1C0
E1C0
E1C0
E1C0
E1C0
7380
3F00
ENDCHAR

STARTCHAR char10
ENCODING 10
SWIDTH 871 0
DWIDTH 23 0
BBX 14 29 3 -5
BITMAP
FFFC
FFFC
FFFC
FFFC
FFFC
FFFC
FFFC
FFFC
FFFC
F87C
F7BC
EFDC
FFFC
FFFC
FFFC
FFFC
EFDC
F7BC
F87C
FFFC
FFFC
FFFC
FFFC
FFFC
FFFC
FFFC
FFFC
FFFC
FFFC
ENDCHAR

STARTCHAR char11
ENCODING 11
SWIDTH 871 0
DWIDTH 23 0
BBX 12 13 3 3
BITMAP
00F0
0FF0
07E0
03F0
07F0
3F30
7380
E0C0
C0C0
C0C0
E1C0
7780
3E00
ENDCHAR

STARTCHAR char12
ENCODING 12
SWIDTH 871 0
DWIDTH 23 0
BBX 11 14 5 1
BITMAP
3F80
71C0
E0E0
E0E0
E0E0
E0E0
71C0
3F80
0E00
0E00
7FC0
0E00
0E00
0E00
ENDCHAR

STARTCHAR char13
ENCODING 13
SWIDTH 871 0
DWIDTH 23 0
BBX 11 15 3 2
BITMAP
0E00
0F00
0FC0
0FC0
0FE0
0EE0
0EE0
0EE0
0E00
0E00
0E00
7E00
FE00
FE00
7C00
ENDCHAR

STARTCHAR char14
ENCODING 14
SWIDTH 871 0
DWIDTH 23 0
BBX 12 17 3 0
BITMAP
1E00
1F80
1FE0
1DF0
1E70
1FF0
1FF0
1DF0
1C70
7C70
FC70
F870
F070
0070
01F0
03F0
03E0
ENDCHAR

STARTCHAR char164
ENCODING 15
SWIDTH 871 0
DWIDTH 23 0
BBX 13 13 2 3
BITMAP
6030
F078
7FF0
3FE0
78F0
7070
7070
7070
7070
78E0
7FF0
FFF8
E030
ENDCHAR

STARTCHAR char16
ENCODING 16
SWIDTH 871 0
DWIDTH 23 0
BBX 10 16 4 0
BITMAP
E000
F000
F800
FC00
FE00
FF00
FF80
FFC0
FFC0
FF80
FF00
FE00
FC00
F800
F000
E000
ENDCHAR

STARTCHAR char17
ENCODING 17
SWIDTH 871 0
DWIDTH 23 0
BBX 10 16 3 1
BITMAP
01C0
03C0
07C0
0FC0
1FC0
3FC0
7FC0
FFC0
FFC0
7FC0
3FC0
1FC0
0FC0
07C0
03C0
01C0
ENDCHAR

STARTCHAR char18
ENCODING 18
SWIDTH 871 0
DWIDTH 23 0
BBX 9 18 5 1
BITMAP
1C00
1C00
3E00
7F00
FF80
1C00
1C00
1C00
1C00
1C00
1C00
1C00
1C00
FF80
7F00
3E00
1C00
1C00
ENDCHAR

STARTCHAR char19
ENCODING 19
SWIDTH 871 0
DWIDTH 23 0
BBX 8 14 5 3
BITMAP
E7
E7
E7
E7
E7
E7
E7
E7
E7
E7
00
00
E7
E7
ENDCHAR

STARTCHAR char20
ENCODING 20
SWIDTH 871 0
DWIDTH 23 0
BBX 14 11 3 1
BITMAP
003C
3FF0
7DE0
FDE0
3DE0
3DE0
3DE0
3DE0
3DE0
79E0
C000
ENDCHAR

STARTCHAR char167
ENCODING 21
SWIDTH 871 0
DWIDTH 23 0
BBX 11 23 3 -4
BITMAP
1FC0
7FC0
F0C0
E000
E000
F000
7C00
7F00
7F80
EFC0
E3C0
E1C0
F9C0
7F80
7F80
1F80
07C0
03E0
01E0
01E0
C3E0
FFC0
7F80
ENDCHAR

STARTCHAR char22
ENCODING 22
SWIDTH 871 0
DWIDTH 23 0
BBX 9 5 5 7
BITMAP
FF80
FF80
FF80
FF80
FF80
ENDCHAR

STARTCHAR char23
ENCODING 23
SWIDTH 871 0
DWIDTH 23 0
BBX 9 18 5 1
BITMAP
1C00
3E00
7F00
FF80
1C00
1C00
1C00
1C00
1C00
1C00
1C00
FF80
7F00
3E00
1C00
0000
0000
FF80
ENDCHAR

STARTCHAR char24
ENCODING 24
SWIDTH 871 0
DWIDTH 23 0
BBX 10 16 4 1
BITMAP
0C00
1E00
3F00
7F80
FFC0
1E00
1E00
1E00
1E00
1E00
1E00
1E00
1E00
1E00
1E00
1E00
ENDCHAR

STARTCHAR char25
ENCODING 25
SWIDTH 871 0
DWIDTH 23 0
BBX 10 16 4 1
BITMAP
1E00
1E00
1E00
1E00
1E00
1E00
1E00
1E00
1E00
1E00
1E00
FFC0
7F80
3F00
1E00
0C00
ENDCHAR

STARTCHAR char26
ENCODING 26
SWIDTH 871 0
DWIDTH 23 0
BBX 12 7 3 6
BITMAP
0300
0380
03E0
FFF0
03E0
0380
0300
ENDCHAR

STARTCHAR char27
ENCODING 27
SWIDTH 871 0
DWIDTH 23 0
BBX 13 7 3 6
BITMAP
0C00
3C00
7C00
FFF8
7C00
3C00
0C00
ENDCHAR

STARTCHAR char28
ENCODING 28
SWIDTH 871 0
DWIDTH 23 0
BBX 13 6 3 6
BITMAP
F000
F000
F000
F000
F000
FFF8
ENDCHAR

STARTCHAR char29
ENCODING 29
SWIDTH 871 0
DWIDTH 23 0
BBX 15 7 3 5
BITMAP
1830
3838
783C
FFFE
783C
3838
1830
ENDCHAR

STARTCHAR char30
ENCODING 30
SWIDTH 871 0
DWIDTH 23 0
BBX 12 6 3 8
BITMAP
0600
0F00
1F80
3FC0
7FE0
FFF0
ENDCHAR

STARTCHAR char31
ENCODING 31
SWIDTH 871 0
DWIDTH 23 0
BBX 12 6 4 5
BITMAP
FFF0
7FE0
3FC0
1F80
0F00
0600
ENDCHAR

STARTCHAR char32
ENCODING 32
SWIDTH 871 0
DWIDTH 23 0
BBX 0 0 0 0
BITMAP
ENDCHAR

STARTCHAR char33
ENCODING 33
SWIDTH 871 0
DWIDTH 23 0
BBX 5 19 6 0
BITMAP
78
78
78
78
78
78
78
78
78
70
70
70
70
70
00
00
F8
F8
F8
ENDCHAR

STARTCHAR char34
ENCODING 34
SWIDTH 871 0
DWIDTH 23 0
BBX 11 6 3 13
BITMAP
F1E0
F1E0
F1E0
71C0
71C0
71C0
ENDCHAR

STARTCHAR char35
ENCODING 35
SWIDTH 871 0
DWIDTH 23 0
BBX 15 19 1 0
BITMAP
03BC
03B8
0738
0738
0738
0770
7FFE
7FFE
0E70
0EE0
0EE0
1CE0
FFFC
FFFC
1DC0
39C0
39C0
3BC0
7B80
ENDCHAR

STARTCHAR char36
ENCODING 36
SWIDTH 871 0
DWIDTH 23 0
BBX 11 22 3 -2
BITMAP
0E00
3FC0
7FE0
FE60
FE00
FE00
FE00
FE00
7E00
3E00
1F00
0F80
0FC0
0FE0
0FE0
0FE0
0FE0
CFC0
FFC0
7F80
0E00
0E00
ENDCHAR

STARTCHAR char37
ENCODING 37
SWIDTH 871 0
DWIDTH 23 0
BBX 17 19 0 0
BITMAP
3E0780
770700
E38E00
E39E00
E3BC00
E3B800
E3F000
77F000
3FE000
01C000
038000
07BE00
077700
0EE380
1EE380
3CE380
38E380
707700
F03E00
ENDCHAR

STARTCHAR char38
ENCODING 38
SWIDTH 871 0
DWIDTH 23 0
BBX 16 19 0 0
BITMAP
07C0
0FE0
1EF0
1EF0
1EF0
1EF0
0FE0
0FC0
1F80
7F8F
7FCF
F3CF
F3EE
F1FE
F0FC
F8FC
7CF8
3FFC
1FDF
ENDCHAR

STARTCHAR char39
ENCODING 39
SWIDTH 871 0
DWIDTH 23 0
BBX 5 7 6 12
BITMAP
F8
F8
F8
38
78
F0
C0
ENDCHAR

STARTCHAR char40
ENCODING 40
SWIDTH 871 0
DWIDTH 23 0
BBX 11 23 4 -4
BITMAP
01E0
07E0
1F80
3E00
3C00
7C00
7800
F800
F000
F000
F000
F000
F000
F000
F000
7800
7800
3800
3C00
1E00
0F80
03E0
00E0
ENDCHAR

STARTCHAR char41
ENCODING 41
SWIDTH 871 0
DWIDTH 23 0
BBX 11 23 2 -4
BITMAP
E000
FC00
3E00
0F00
0780
0780
03C0
03C0
01E0
01E0
01E0
01E0
01E0
01E0
01E0
03C0
03C0
07C0
0780
0F00
3E00
FC00
E000
ENDCHAR

STARTCHAR char42
ENCODING 42
SWIDTH 871 0
DWIDTH 23 0
BBX 13 11 2 8
BITMAP
0700
0700
0700
7770
FDF8
38E0
0D80
1FC0
3DE0
78F0
18C0
ENDCHAR

STARTCHAR char43
ENCODING 43
SWIDTH 871 0
DWIDTH 23 0
BBX 15 14 1 0
BITMAP
0380
0380
0380
0380
0380
0380
FFFE
FFFE
0380
0380
0380
0380
0380
0380
ENDCHAR

STARTCHAR char44
ENCODING 44
SWIDTH 871 0
DWIDTH 23 0
BBX 5 8 6 -4
BITMAP
F8
F8
F8
F8
38
38
70
E0
ENDCHAR

STARTCHAR char45
ENCODING 45
SWIDTH 871 0
DWIDTH 23 0
BBX 14 2 1 6
BITMAP
FFFC
FFFC
ENDCHAR

STARTCHAR char46
ENCODING 46
SWIDTH 871 0
DWIDTH 23 0
BBX 5 4 6 0
BITMAP
F8
F8
F8
F8
ENDCHAR

STARTCHAR char47
ENCODING 47
SWIDTH 871 0
DWIDTH 23 0
BBX 15 23 1 -4
BITMAP
000E
001C
001C
0038
0078
0070
00F0
00E0
01E0
01C0
03C0
0380
0780
0700
0F00
0E00
1E00
1C00
3C00
3800
7000
7000
E000
ENDCHAR

STARTCHAR char48
ENCODING 48
SWIDTH 871 0
DWIDTH 23 0
BBX 14 19 1 0
BITMAP
0FC0
1FE0
3CF0
7878
7878
F03C
F03C
F03C
F03C
F03C
F03C
F03C
F03C
F03C
7878
7878
3CF0
1FE0
0FC0
ENDCHAR

STARTCHAR char49
ENCODING 49
SWIDTH 871 0
DWIDTH 23 0
BBX 14 19 2 0
BITMAP
0380
3F80
FF80
E780
0780
0780
0780
0780
0780
0780
0780
0780
0780
0780
0780
0780
0780
FFFC
FFFC
ENDCHAR

STARTCHAR char50
ENCODING 50
SWIDTH 871 0
DWIDTH 23 0
BBX 12 19 2 0
BITMAP
3F80
FFC0
E1E0
00F0
00F0
00F0
00F0
01E0
01E0
03C0
0780
0F00
1E00
3C00
7800
7800
F000
FFF0
FFF0
ENDCHAR

STARTCHAR char51
ENCODING 51
SWIDTH 871 0
DWIDTH 23 0
BBX 12 19 3 0
BITMAP
7F80
FFE0
E1F0
00F0
00F0
00F0
00E0
03C0
3F00
3FC0
03E0
01F0
00F0
00F0
00F0
01F0
C3E0
FFC0
FF00
ENDCHAR

STARTCHAR char52
ENCODING 52
SWIDTH 871 0
DWIDTH 23 0
BBX 15 19 1 0
BITMAP
00F0
01F0
01F0
03F0
07F0
0FF0
0EF0
1CF0
3CF0
38F0
70F0
F0F0
FFFE
FFFE
00F0
00F0
00F0
00F0
00F0
ENDCHAR

STARTCHAR char53
ENCODING 53
SWIDTH 871 0
DWIDTH 23 0
BBX 10 19 4 0
BITMAP
FFC0
FFC0
E000
E000
E000
E000
E000
FC00
FF00
0F80
0780
03C0
03C0
03C0
03C0
07C0
C780
FF00
FE00
ENDCHAR

STARTCHAR char54
ENCODING 54
SWIDTH 871 0
DWIDTH 23 0
BBX 13 19 2 0
BITMAP
07E0
1FF0
3E30
7800
7800
7000
F000
F7C0
FFF0
F8F0
F8F8
F078
F078
F078
7078
7870
7CF0
3FE0
0FC0
ENDCHAR

STARTCHAR char55
ENCODING 55
SWIDTH 871 0
DWIDTH 23 0
BBX 12 19 3 0
BITMAP
FFF0
FFF0
FFF0
00E0
00E0
01C0
03C0
0380
0780
0700
0F00
0E00
1E00
1C00
3C00
3C00
7800
7800
7800
ENDCHAR

STARTCHAR char56
ENCODING 56
SWIDTH 871 0
DWIDTH 23 0
BBX 13 19 2 0
BITMAP
0FC0
3FE0
7CF0
7870
7870
7870
7CE0
3FC0
0F80
1FE0
3BF0
71F0
F0F8
F078
F078
F078
78F0
7FE0
1FC0
ENDCHAR

STARTCHAR char57
ENCODING 57
SWIDTH 871 0
DWIDTH 23 0
BBX 13 19 2 0
BITMAP
1F80
3FE0
79F0
78F0
F070
F078
F078
F078
F8F8
78F8
7FF8
1F78
0078
0070
00F0
00F0
63E0
7FC0
3F00
ENDCHAR

STARTCHAR char58
ENCODING 58
SWIDTH 871 0
DWIDTH 23 0
BBX 5 14 6 0
BITMAP
F8
F8
F8
F8
00
00
00
00
00
00
F8
F8
F8
F8
ENDCHAR

STARTCHAR char59
ENCODING 59
SWIDTH 871 0
DWIDTH 23 0
BBX 5 18 6 -4
BITMAP
F8
F8
F8
F8
00
00
00
00
00
00
F8
F8
F8
F8
38
38
70
E0
ENDCHAR

STARTCHAR char60
ENCODING 60
SWIDTH 871 0
DWIDTH 23 0
BBX 14 14 1 0
BITMAP
000C
003C
00F8
03F0
07C0
1F00
FC00
7C00
1F00
07C0
03F0
00FC
003C
000C
ENDCHAR

STARTCHAR char61
ENCODING 61
SWIDTH 871 0
DWIDTH 23 0
BBX 14 7 1 3
BITMAP
FFFC
FFFC
0000
0000
0000
FFFC
FFFC
ENDCHAR

STARTCHAR char62
ENCODING 62
SWIDTH 871 0
DWIDTH 23 0
BBX 14 14 1 0
BITMAP
C000
F000
7C00
3F00
0F80
03E0
00F8
00FC
03E0
0F80
3F00
FC00
F000
C000
ENDCHAR

STARTCHAR char63
ENCODING 63
SWIDTH 871 0
DWIDTH 23 0
BBX 13 19 2 0
BITMAP
7FC0
FFF0
E0F8
E078
E078
0078
00F0
01E0
03C0
0780
0F00
1E00
1E00
1E00
0000
0000
1E00
1E00
1E00
ENDCHAR

STARTCHAR char64
ENCODING 64
SWIDTH 871 0
DWIDTH 23 0
BBX 16 19 1 0
BITMAP
07F0
0FF8
3E3C
381C
70FC
719C
E39C
E31C
E71C
E73C
E73C
E77C
E77C
F3FF
73DF
7800
3C30
1FF0
0FE0
ENDCHAR

STARTCHAR char65
ENCODING 65
SWIDTH 871 0
DWIDTH 23 0
BBX 16 19 0 0
BITMAP
03C0
03C0
07E0
07E0
07E0
0FF0
0EF0
0EF0
1E78
1C78
1C78
3C3C
3FFC
3FFC
781E
701E
701E
E00F
E00F
ENDCHAR

STARTCHAR char66
ENCODING 66
SWIDTH 871 0
DWIDTH 23 0
BBX 13 19 2 0
BITMAP
FFC0
FFE0
F1F0
F0F0
F0F0
F0F0
F1F0
F3E0
FF80
FF80
F1E0
F0F0
F078
F078
F078
F078
F0F0
FFF0
FFC0
ENDCHAR

STARTCHAR char67
ENCODING 67
SWIDTH 871 0
DWIDTH 23 0
BBX 14 19 1 0
BITMAP
07F8
1FFC
3E1C
3C00
7800
7800
F000
F000
F000
F000
F000
F000
F000
7800
7800
3C00
3F0C
1FFC
07F8
ENDCHAR

STARTCHAR char68
ENCODING 68
SWIDTH 871 0
DWIDTH 23 0
BBX 14 19 2 0
BITMAP
FFC0
FFF0
F1F0
F078
F078
F03C
F03C
F03C
F03C
F03C
F03C
F03C
F03C
F03C
F078
F0F8
F1F0
FFE0
FF80
ENDCHAR

STARTCHAR char69
ENCODING 69
SWIDTH 871 0
DWIDTH 23 0
BBX 13 19 3 0
BITMAP
FFF0
FFF0
F000
F000
F000
F000
F000
F000
FFE0
FFE0
F000
F000
F000
F000
F000
F000
F000
FFF8
FFF8
ENDCHAR

STARTCHAR char70
ENCODING 70
SWIDTH 871 0
DWIDTH 23 0
BBX 13 19 3 0
BITMAP
FFF8
FFF8
F000
F000
F000
F000
F000
F000
F000
FFF0
FFE0
F000
F000
F000
F000
F000
F000
F000
F000
ENDCHAR

STARTCHAR char71
ENCODING 71
SWIDTH 871 0
DWIDTH 23 0
BBX 14 19 1 0
BITMAP
07F8
1FFC
3E0C
3C00
7800
7800
F000
F000
F000
F000
F03C
F03C
F03C
783C
783C
3C3C
3E3C
1FFC
07F8
ENDCHAR

STARTCHAR char72
ENCODING 72
SWIDTH 871 0
DWIDTH 23 0
BBX 13 19 2 0
BITMAP
F078
F078
F078
F078
F078
F078
F078
F078
FFF8
FFF8
F078
F078
F078
F078
F078
F078
F078
F078
F078
ENDCHAR

STARTCHAR char73
ENCODING 73
SWIDTH 871 0
DWIDTH 23 0
BBX 12 19 2 0
BITMAP
FFF0
FFF0
0F00
0F00
0F00
0F00
0F00
0F00
0F00
0F00
0F00
0F00
0F00
0F00
0F00
0F00
0F00
FFF0
FFF0
ENDCHAR

STARTCHAR char74
ENCODING 74
SWIDTH 871 0
DWIDTH 23 0
BBX 11 19 2 0
BITMAP
7FE0
7FE0
01E0
01E0
01E0
01E0
01E0
01E0
01E0
01E0
01E0
01E0
01E0
01E0
01E0
01E0
C3C0
FF80
7F00
ENDCHAR

STARTCHAR char75
ENCODING 75
SWIDTH 871 0
DWIDTH 23 0
BBX 14 19 2 0
BITMAP
F078
F0F0
F0E0
F1C0
F3C0
F380
F700
FF00
FE00
FE00
FF00
FF80
F7C0
F3C0
F3E0
F1F0
F0F8
F078
F07C
ENDCHAR

STARTCHAR char76
ENCODING 76
SWIDTH 871 0
DWIDTH 23 0
BBX 13 19 2 0
BITMAP
F000
F000
F000
F000
F000
F000
F000
F000
F000
F000
F000
F000
F000
F000
F000
F000
F000
FFF8
FFF8
ENDCHAR

STARTCHAR char77
ENCODING 77
SWIDTH 871 0
DWIDTH 23 0
BBX 14 19 1 0
BITMAP
F03C
F03C
F87C
F87C
F87C
F87C
FCFC
FCFC
FCFC
FCFC
EFDC
EFDC
EFDC
EFDC
E79C
E79C
E79C
E79C
E01C
ENDCHAR

STARTCHAR char78
ENCODING 78
SWIDTH 871 0
DWIDTH 23 0
BBX 13 19 2 0
BITMAP
F038
F038
F838
FC38
FC38
FE38
FE38
FF38
EF38
EFB8
E7B8
E7F8
E3F8
E3F8
E1F8
E0F8
E0F8
E078
E078
ENDCHAR

STARTCHAR char79
ENCODING 79
SWIDTH 871 0
DWIDTH 23 0
BBX 15 19 1 0
BITMAP
0FE0
1FF0
3C78
783C
783C
701C
F01E
F01E
F01E
F01E
F01E
F01E
F01E
701C
783C
783C
3C78
1FF0
0FE0
ENDCHAR

STARTCHAR char80
ENCODING 80
SWIDTH 871 0
DWIDTH 23 0
BBX 13 19 3 0
BITMAP
FFC0
FFF0
F0F8
F078
F078
F078
F078
F078
F0F0
F1F0
FFE0
FF80
F000
F000
F000
F000
F000
F000
F000
ENDCHAR

STARTCHAR char81
ENCODING 81
SWIDTH 871 0
DWIDTH 23 0
BBX 16 23 1 -4
BITMAP
0FE0
1FF0
3C78
783C
783C
701C
F01E
F01E
F01E
F01E
F01E
F01E
F01E
701E
783C
783C
3C78
1FF0
0FE0
00F0
007C
001F
000E
ENDCHAR

STARTCHAR char82
ENCODING 82
SWIDTH 871 0
DWIDTH 23 0
BBX 14 19 2 0
BITMAP
FF80
FFE0
F1F0
F0F0
F0F0
F0F0
F0F0
F1E0
F3E0
FF80
FF80
F780
F3C0
F3E0
F1E0
F1F0
F0F8
F078
F07C
ENDCHAR

STARTCHAR char83
ENCODING 83
SWIDTH 871 0
DWIDTH 23 0
BBX 13 19 2 0
BITMAP
1FC0
7FE0
7860
F000
F000
F000
F800
7E00
3F80
0FE0
03F0
01F8
0078
0078
0078
0078
E1F0
FFE0
7FC0
ENDCHAR

STARTCHAR char84
ENCODING 84
SWIDTH 871 0
DWIDTH 23 0
BBX 16 19 0 0
BITMAP
FFFF
FFFF
03C0
03C0
03C0
03C0
03C0
03C0
03C0
03C0
03C0
03C0
03C0
03C0
03C0
03C0
03C0
03C0
03C0
ENDCHAR

STARTCHAR char85
ENCODING 85
SWIDTH 871 0
DWIDTH 23 0
BBX 13 19 2 0
BITMAP
F038
F038
F038
F038
F038
F038
F038
F038
F038
F038
F038
F038
F038
F038
F038
F878
7870
7FE0
1FC0
ENDCHAR

STARTCHAR char86
ENCODING 86
SWIDTH 871 0
DWIDTH 23 0
BBX 16 19 0 0
BITMAP
F007
F00F
780E
780E
781E
7C1C
3C1C
3C3C
3E38
1E38
1E78
1F70
0F70
0FF0
0FE0
07E0
07E0
07C0
03C0
ENDCHAR

STARTCHAR char87
ENCODING 87
SWIDTH 871 0
DWIDTH 23 0
BBX 16 19 0 0
BITMAP
E007
E3C7
E3C7
E3C6
E7CE
77EE
77EE
77EE
77EE
76EE
76EC
7EFC
7EFC
7EFC
3EFC
3E7C
3C78
3C78
3C78
ENDCHAR

STARTCHAR char88
ENCODING 88
SWIDTH 871 0
DWIDTH 23 0
BBX 16 19 0 0
BITMAP
F80F
7C1E
3C1C
3E38
1E78
0F70
0FE0
07E0
07C0
03E0
07E0
07F0
0FF0
0EF8
1C7C
3C3C
383E
701E
F00F
ENDCHAR

STARTCHAR char89
ENCODING 89
SWIDTH 871 0
DWIDTH 23 0
BBX 17 19 0 0
BITMAP
F00780
780700
7C0E00
3C1E00
3E1C00
1E3800
1F3800
0FF000
07F000
07E000
03C000
03C000
03C000
03C000
03C000
03C000
03C000
03C000
03C000
ENDCHAR

STARTCHAR char90
ENCODING 90
SWIDTH 871 0
DWIDTH 23 0
BBX 14 19 1 0
BITMAP
7FFC
7FFC
007C
0078
00F8
01F0
01E0
03E0
07C0
0780
0F80
1F00
1E00
3E00
7C00
7800
F800
FFFC
FFFC
ENDCHAR

STARTCHAR char91
ENCODING 91
SWIDTH 871 0
DWIDTH 23 0
BBX 9 23 6 -4
BITMAP
FF80
FF80
E000
E000
E000
E000
E000
E000
E000
E000
E000
E000
E000
E000
E000
E000
E000
E000
E000
E000
E000
FF80
FF80
ENDCHAR

STARTCHAR char92
ENCODING 92
SWIDTH 871 0
DWIDTH 23 0
BBX 15 23 1 -4
BITMAP
E000
7000
7000
3800
3C00
1C00
1E00
0E00
0F00
0700
0780
0380
03C0
01C0
01E0
00E0
00F0
0070
0078
0038
001C
001C
000E
ENDCHAR

STARTCHAR char93
ENCODING 93
SWIDTH 871 0
DWIDTH 23 0
BBX 9 23 2 -4
BITMAP
FF80
FF80
0380
0380
0380
0380
0380
0380
0380
0380
0380
0380
0380
0380
0380
0380
0380
0380
0380
0380
0380
FF80
FF80
ENDCHAR

STARTCHAR char94
ENCODING 94
SWIDTH 871 0
DWIDTH 23 0
BBX 14 15 1 4
BITMAP
0300
0300
0780
0780
0FC0
0FC0
0FC0
1CE0
1CE0
3870
3870
7878
7038
7038
E01C
ENDCHAR

STARTCHAR char95
ENCODING 95
SWIDTH 871 0
DWIDTH 23 0
BBX 17 2 0 -2
BITMAP
FFFF80
FFFF80
ENDCHAR

STARTCHAR char96
ENCODING 96
SWIDTH 871 0
DWIDTH 23 0
BBX 5 7 6 12
BITMAP
38
70
E0
E0
F8
F8
F8
ENDCHAR

STARTCHAR char97
ENCODING 97
SWIDTH 871 0
DWIDTH 23 0
BBX 14 14 2 0
BITMAP
1FC0
7FE0
61F0
00F0
00F0
00F0
1FF0
7FF0
78F0
F0F0
F0F0
F9F0
7FFC
3F7C
ENDCHAR

STARTCHAR char98
ENCODING 98
SWIDTH 871 0
DWIDTH 23 0
BBX 13 19 2 0
BITMAP
F000
F000
F000
F000
F000
F7C0
FFF0
FCF0
F8F8
F078
F078
F078
F078
F078
F078
F0F0
F9F0
FFE0
EFC0
ENDCHAR

STARTCHAR char99
ENCODING 99
SWIDTH 871 0
DWIDTH 23 0
BBX 13 14 2 0
BITMAP
0FF0
3FF8
7C38
7800
F000
F000
F000
F000
F000
F800
7800
7E18
3FF8
0FF0
ENDCHAR

STARTCHAR char100
ENCODING 100
SWIDTH 871 0
DWIDTH 23 0
BBX 13 19 2 0
BITMAP
0078
0078
0078
0078
0078
1F78
3FF8
7CF8
7878
F078
F078
F078
F078
F078
F078
F8F8
79F8
7FF8
1F78
ENDCHAR

STARTCHAR char101
ENCODING 101
SWIDTH 871 0
DWIDTH 23 0
BBX 13 14 2 0
BITMAP
0FC0
3FF0
7CF0
7878
F078
F078
FFF8
FFF8
F000
F000
7800
7C18
3FF8
0FF0
ENDCHAR

STARTCHAR char102
ENCODING 102
SWIDTH 871 0
DWIDTH 23 0
BBX 15 20 2 0
BITMAP
03FC
07FE
0F86
0F00
0F00
0F00
FFFC
FFFC
0F00
0F00
0F00
0F00
0F00
0F00
0F00
0F00
0F00
0F00
0F00
0F00
ENDCHAR

STARTCHAR char103
ENCODING 103
SWIDTH 871 0
DWIDTH 23 0
BBX 13 19 2 -5
BITMAP
0FB8
3FF8
7CF8
7878
F078
F078
F078
F078
F078
F078
F8F8
79F8
7FF8
1F78
0078
0070
70F0
7FE0
3FC0
ENDCHAR

STARTCHAR char104
ENCODING 104
SWIDTH 871 0
DWIDTH 23 0
BBX 12 19 2 0
BITMAP
F000
F000
F000
F000
F000
F3C0
FFE0
FFF0
FCF0
F8F0
F0F0
F0F0
F0F0
F0F0
F0F0
F0F0
F0F0
F0F0
F0F0
ENDCHAR

STARTCHAR char105
ENCODING 105
SWIDTH 871 0
DWIDTH 23 0
BBX 9 19 2 0
BITMAP
0780
0780
0780
0000
0000
FF80
FF80
0780
0780
0780
0780
0780
0780
0780
0780
0780
0780
0780
0780
ENDCHAR

STARTCHAR char106
ENCODING 106
SWIDTH 871 0
DWIDTH 23 0
BBX 11 24 2 -5
BITMAP
01E0
01E0
01E0
0000
0000
7FE0
7FE0
01E0
01E0
01E0
01E0
01E0
01E0
01E0
01E0
01E0
01E0
01E0
01E0
01E0
01E0
C3C0
FFC0
7F00
ENDCHAR

STARTCHAR char107
ENCODING 107
SWIDTH 871 0
DWIDTH 23 0
BBX 14 19 2 0
BITMAP
F000
F000
F000
F000
F000
F0F0
F0E0
F1C0
F3C0
F780
FF00
FF00
FF80
FF80
F7C0
F3E0
F1F0
F0F8
F07C
ENDCHAR

STARTCHAR char108
ENCODING 108
SWIDTH 871 0
DWIDTH 23 0
BBX 9 19 2 0
BITMAP
FF80
FF80
0780
0780
0780
0780
0780
0780
0780
0780
0780
0780
0780
0780
0780
0780
0780
0780
0780
ENDCHAR

STARTCHAR char109
ENCODING 109
SWIDTH 871 0
DWIDTH 23 0
BBX 15 14 1 0
BITMAP
EF3C
FFFE
FBEE
F3CE
E38E
E38E
E38E
E38E
E38E
E38E
E38E
E38E
E38E
E38E
ENDCHAR

STARTCHAR char110
ENCODING 110
SWIDTH 871 0
DWIDTH 23 0
BBX 12 14 2 0
BITMAP
F3C0
FFE0
FFF0
FCF0
F8F0
F0F0
F0F0
F0F0
F0F0
F0F0
F0F0
F0F0
F0F0
F0F0
ENDCHAR

STARTCHAR char111
ENCODING 111
SWIDTH 871 0
DWIDTH 23 0
BBX 14 14 1 0
BITMAP
0FC0
3FF0
7CF8
7878
F03C
F03C
F03C
F03C
F03C
F03C
7878
7CF8
3FF0
0FC0
ENDCHAR

STARTCHAR char112
ENCODING 112
SWIDTH 871 0
DWIDTH 23 0
BBX 13 19 2 -5
BITMAP
F7C0
FFF0
FCF0
F8F8
F078
F078
F078
F078
F078
F078
F0F0
F9F0
FFE0
F7C0
F000
F000
F000
F000
F000
ENDCHAR

STARTCHAR char113
ENCODING 113
SWIDTH 871 0
DWIDTH 23 0
BBX 13 19 1 -5
BITMAP
1FB8
3FF8
7CF8
7878
F078
F078
F078
F078
F078
F078
F8F8
79F8
7FF8
1F78
0078
0078
0078
0078
0078
ENDCHAR

STARTCHAR char114
ENCODING 114
SWIDTH 871 0
DWIDTH 23 0
BBX 12 14 3 0
BITMAP
F3F0
FFF0
FE70
F870
F000
F000
F000
F000
F000
F000
F000
F000
F000
F000
ENDCHAR

STARTCHAR char115
ENCODING 115
SWIDTH 871 0
DWIDTH 23 0
BBX 12 14 2 0
BITMAP
1FC0
7FE0
F860
F000
F800
FE00
7FC0
1FE0
03F0
00F0
00F0
E1F0
FFE0
7F80
ENDCHAR

STARTCHAR char116
ENCODING 116
SWIDTH 871 0
DWIDTH 23 0
BBX 13 17 2 0
BITMAP
1E00
1E00
1E00
FFF8
FFF8
1E00
1E00
1E00
1E00
1E00
1E00
1E00
1E00
1E00
1F00
0FF8
07F8
ENDCHAR

STARTCHAR char117
ENCODING 117
SWIDTH 871 0
DWIDTH 23 0
BBX 12 14 2 0
BITMAP
F0F0
F0F0
F0F0
F0F0
F0F0
F0F0
F0F0
F0F0
F0F0
F1F0
F3F0
FFF0
7FF0
3CF0
ENDCHAR

STARTCHAR char118
ENCODING 118
SWIDTH 871 0
DWIDTH 23 0
BBX 15 14 1 0
BITMAP
F00E
F01C
781C
783C
7C38
3C78
3E70
1E70
1EE0
0FE0
0FE0
0FC0
07C0
0780
ENDCHAR

STARTCHAR char119
ENCODING 119
SWIDTH 871 0
DWIDTH 23 0
BBX 16 14 0 0
BITMAP
F007
F3C7
F3C6
73EE
7BEE
7FEE
7FEE
7FEC
7FFC
3E7C
3E7C
3E7C
3E78
3C38
ENDCHAR

STARTCHAR char120
ENCODING 120
SWIDTH 871 0
DWIDTH 23 0
BBX 14 14 1 0
BITMAP
F83C
7878
7CF0
3EE0
1FE0
0FC0
0F80
07C0
0FC0
1FE0
3DF0
38F8
7078
F07C
ENDCHAR

STARTCHAR char121
ENCODING 121
SWIDTH 871 0
DWIDTH 23 0
BBX 15 19 1 -5
BITMAP
F00E
F81C
781C
7C38
3C38
3C78
1E70
1EF0
1FE0
0FE0
0FC0
07C0
0780
0380
0700
0700
0F00
7E00
7C00
ENDCHAR

STARTCHAR char122
ENCODING 122
SWIDTH 871 0
DWIDTH 23 0
BBX 13 14 2 0
BITMAP
FFF8
FFF8
00F0
00E0
01C0
03C0
0780
0F00
1E00
3C00
7800
7000
FFF8
FFF8
ENDCHAR

STARTCHAR char123
ENCODING 123
SWIDTH 871 0
DWIDTH 23 0
BBX 11 23 3 -4
BITMAP
07E0
0FE0
1F00
1E00
1E00
1E00
0F00
0F00
0700
0700
0E00
F800
FE00
0F00
0700
0700
0F00
0E00
1E00
1E00
1F00
0FE0
07E0
ENDCHAR

STARTCHAR char166
ENCODING 124
SWIDTH 871 0
DWIDTH 23 0
BBX 3 23 7 -4
BITMAP
E0
E0
E0
E0
E0
E0
E0
E0
E0
00
00
00
00
00
E0
E0
E0
E0
E0
E0
E0
E0
E0
ENDCHAR

STARTCHAR char125
ENCODING 125
SWIDTH 871 0
DWIDTH 23 0
BBX 11 23 3 -4
BITMAP
FC00
FF00
0F80
0780
0780
0700
0F00
0E00
0E00
0E00
0700
03E0
07E0
0F00
0E00
0E00
0E00
0700
0780
0780
0F80
FF00
FC00
ENDCHAR

STARTCHAR char126
ENCODING 126
SWIDTH 871 0
DWIDTH 23 0
BBX 14 5 1 4
BITMAP
3C1C
7F1C
E79C
E3F8
E0F0
ENDCHAR

STARTCHAR char127
ENCODING 127
SWIDTH 871 0
DWIDTH 23 0
BBX 11 11 5 7
BITMAP
0E00
1F00
3B80
71C0
E0E0
E0E0
E0E0
E0E0
E0E0
E0E0
FFE0
ENDCHAR

STARTCHAR char199
ENCODING 128
SWIDTH 871 0
DWIDTH 23 0
BBX 14 24 1 -5
BITMAP
07F8
1FFC
3E1C
3C00
7800
7800
F000
F000
F000
F000
F000
F000
F000
7800
7800
3C00
3F0C
1FFC
07F8
0300
0700
01C0
01C0
0780
ENDCHAR

STARTCHAR char252
ENCODING 129
SWIDTH 871 0
DWIDTH 23 0
BBX 12 17 2 0
BITMAP
39C0
39C0
0000
F0F0
F0F0
F0F0
F0F0
F0F0
F0F0
F0F0
F0F0
F0F0
F1F0
F3F0
FFF0
7FF0
3CF0
ENDCHAR

STARTCHAR char233
ENCODING 130
SWIDTH 871 0
DWIDTH 23 0
BBX 13 19 2 0
BITMAP
03C0
0780
0F00
1E00
0000
0FC0
3FF0
7CF0
7878
F078
F078
FFF8
FFF8
F000
F000
7800
7C18
3FF8
0FF0
ENDCHAR

STARTCHAR char226
ENCODING 131
SWIDTH 871 0
DWIDTH 23 0
BBX 14 19 2 0
BITMAP
0F80
0F80
1DC0
38E0
0000
1FC0
7FE0
61F0
00F0
00F0
00F0
1FF0
7FF0
78F0
F0F0
F0F0
F9F0
7FFC
3F7C
ENDCHAR

STARTCHAR char228
ENCODING 132
SWIDTH 871 0
DWIDTH 23 0
BBX 14 16 2 0
BITMAP
39C0
39C0
0000
1FC0
7FE0
60F0
00F0
00F0
1FF0
7FF0
78F0
F0F0
F0F0
F9F0
7FFC
3F7C
ENDCHAR

STARTCHAR char224
ENCODING 133
SWIDTH 871 0
DWIDTH 23 0
BBX 14 19 2 0
BITMAP
1E00
0F00
0780
03C0
0000
1FC0
7FE0
61F0
00F0
00F0
00F0
1FF0
7FF0
78F0
F0F0
F0F0
F9F0
7FFC
3F7C
ENDCHAR

STARTCHAR char229
ENCODING 134
SWIDTH 871 0
DWIDTH 23 0
BBX 14 19 2 0
BITMAP
0700
0D80
0D80
0700
0000
1FC0
7FE0
61F0
00F0
00F0
00F0
1FF0
7FF0
78F0
F0F0
F0F0
F9F0
7FFC
3F7C
ENDCHAR

STARTCHAR char231
ENCODING 135
SWIDTH 871 0
DWIDTH 23 0
BBX 13 19 2 -5
BITMAP
0FF0
3FF8
7C38
7800
F000
F000
F000
F000
F000
F800
7800
7E18
3FF8
0FF0
0600
0E00
0380
0380
0F00
ENDCHAR

STARTCHAR char234
ENCODING 136
SWIDTH 871 0
DWIDTH 23 0
BBX 13 19 2 0
BITMAP
0F80
0F80
1DC0
38E0
0000
0FC0
3FF0
7CF0
7878
F078
F078
FFF8
FFF8
F000
F000
7800
7C18
3FF8
0FF0
ENDCHAR

STARTCHAR char235
ENCODING 137
SWIDTH 871 0
DWIDTH 23 0
BBX 13 17 2 0
BITMAP
39C0
39C0
0000
0FC0
3FF0
7CF0
7878
F078
F078
FFF8
FFF8
F000
F000
7800
7C18
3FF8
0FF0
ENDCHAR

STARTCHAR char232
ENCODING 138
SWIDTH 871 0
DWIDTH 23 0
BBX 13 19 2 0
BITMAP
1E00
0F00
0780
03C0
0000
0FC0
3FF0
7CF0
7878
F078
F078
FFF8
FFF8
F000
F000
7800
7C18
3FF8
0FF0
ENDCHAR

STARTCHAR char239
ENCODING 139
SWIDTH 871 0
DWIDTH 23 0
BBX 10 17 2 0
BITMAP
39C0
39C0
0000
FF80
FF80
0780
0780
0780
0780
0780
0780
0780
0780
0780
0780
0780
0780
ENDCHAR

STARTCHAR char238
ENCODING 140
SWIDTH 871 0
DWIDTH 23 0
BBX 11 19 2 0
BITMAP
0F80
0F80
1DC0
38E0
0000
FF80
FF80
0780
0780
0780
0780
0780
0780
0780
0780
0780
0780
0780
0780
ENDCHAR

STARTCHAR char236
ENCODING 141
SWIDTH 871 0
DWIDTH 23 0
BBX 10 19 2 0
BITMAP
1E00
0F00
0780
03C0
0000
FF80
FF80
0780
0780
0780
0780
0780
0780
0780
0780
0780
0780
0780
0780
ENDCHAR

STARTCHAR char196
ENCODING 142
SWIDTH 871 0
DWIDTH 23 0
BBX 16 22 0 0
BITMAP
0E70
0E70
0000
03C0
03C0
07E0
07E0
07E0
0FF0
0EF0
0EF0
1E78
1C78
1C78
3C3C
3FFC
3FFC
781E
701E
701E
E00F
E00F
ENDCHAR

STARTCHAR char197
ENCODING 143
SWIDTH 871 0
DWIDTH 23 0
BBX 16 24 0 0
BITMAP
0380
06C0
06C0
0380
0000
03C0
03C0
07E0
07E0
07E0
0FF0
0EF0
0EF0
1E78
1C78
1C78
3C3C
3FFC
3FFC
781E
701E
701E
E00F
E00F
ENDCHAR

STARTCHAR char201
ENCODING 144
SWIDTH 871 0
DWIDTH 23 0
BBX 13 24 3 0
BITMAP
0780
0F00
1E00
3C00
0000
FFF0
FFF0
F000
F000
F000
F000
F000
F000
FFE0
FFE0
F000
F000
F000
F000
F000
F000
F000
FFF8
FFF8
ENDCHAR

STARTCHAR char230
ENCODING 145
SWIDTH 871 0
DWIDTH 23 0
BBX 15 14 1 0
BITMAP
3EF8
7FFC
67DC
079E
079E
079E
3FFE
7FFE
FF80
F780
F780
F7C6
7FFE
3CFC
ENDCHAR

STARTCHAR char198
ENCODING 146
SWIDTH 871 0
DWIDTH 23 0
BBX 17 19 0 0
BITMAP
01FF00
01FF00
01F000
03F000
03F000
03F000
07F000
07F000
0EF000
0EFE00
0EFE00
1CF000
1CF000
3FF000
3FF000
38F000
70F000
70FF80
E0FF80
ENDCHAR

STARTCHAR char244
ENCODING 147
SWIDTH 871 0
DWIDTH 23 0
BBX 14 19 1 0
BITMAP
0F80
0F80
1DC0
38E0
0000
0FC0
3FF0
7CF8
7878
F03C
F03C
F03C
F03C
F03C
F03C
7878
7CF8
3FF0
0FC0
ENDCHAR

STARTCHAR char246
ENCODING 148
SWIDTH 871 0
DWIDTH 23 0
BBX 14 17 1 0
BITMAP
1CE0
1CE0
0000
0FC0
3FF0
7CF8
7878
F03C
F03C
F03C
F03C
F03C
F03C
7878
7CF8
3FF0
0FC0
ENDCHAR

STARTCHAR char242
ENCODING 149
SWIDTH 871 0
DWIDTH 23 0
BBX 14 19 1 0
BITMAP
0F00
0780
03C0
01E0
0000
0FC0
3FF0
7CF8
7878
F03C
F03C
F03C
F03C
F03C
F03C
7878
7CF8
3FF0
0FC0
ENDCHAR

STARTCHAR char251
ENCODING 150
SWIDTH 871 0
DWIDTH 23 0
BBX 12 19 2 0
BITMAP
0F80
0F80
1DC0
38E0
0000
F0F0
F0F0
F0F0
F0F0
F0F0
F0F0
F0F0
F0F0
F0F0
F1F0
F3F0
FFF0
7FF0
3CF0
ENDCHAR

STARTCHAR char250
ENCODING 151
SWIDTH 871 0
DWIDTH 23 0
BBX 12 19 2 0
BITMAP
0780
0F00
1E00
3C00
0000
F0F0
F0F0
F0F0
F0F0
F0F0
F0F0
F0F0
F0F0
F0F0
F1F0
F3F0
FFF0
7FF0
3CF0
ENDCHAR

STARTCHAR char255
ENCODING 152
SWIDTH 871 0
DWIDTH 23 0
BBX 15 22 1 -5
BITMAP
1CE0
1CE0
0000
F00E
F81C
781C
7C38
3C38
3C78
1E70
1EF0
1FE0
0FE0
0FC0
07C0
0780
0380
0700
0700
0F00
7E00
7C00
ENDCHAR

STARTCHAR char214
ENCODING 153
SWIDTH 871 0
DWIDTH 23 0
BBX 15 22 1 0
BITMAP
1CE0
1CE0
0000
0FE0
1FF0
3C78
783C
783C
701C
F01E
F01E
F01E
F01E
F01E
F01E
F01E
701C
783C
783C
3C78
1FF0
0FE0
ENDCHAR

STARTCHAR char220
ENCODING 154
SWIDTH 871 0
DWIDTH 23 0
BBX 13 22 2 0
BITMAP
39C0
39C0
0000
F038
F038
F038
F038
F038
F038
F038
F038
F038
F038
F038
F038
F038
F038
F038
F878
7870
7FE0
1FC0
ENDCHAR

STARTCHAR char162
ENCODING 155
SWIDTH 871 0
DWIDTH 23 0
BBX 11 19 3 0
BITMAP
0700
0700
0FE0
3FE0
7F60
7F00
F700
F700
F700
F700
F700
F700
F700
7F00
7FE0
3FE0
1F00
0700
0700
ENDCHAR

STARTCHAR char163
ENCODING 156
SWIDTH 871 0
DWIDTH 23 0
BBX 12 19 3 0
BITMAP
03F0
0FF0
0E30
1E00
1E00
1E00
1E00
1E00
FF80
FF80
1E00
1E00
1E00
1E00
1E00
3C00
7800
FFF0
FFF0
ENDCHAR

STARTCHAR char165
ENCODING 157
SWIDTH 871 0
DWIDTH 23 0
BBX 16 19 0 0
BITMAP
F80F
780E
7C1C
3C1C
3E38
1F78
0F70
0FF0
07E0
07C0
3FF8
3FF8
03C0
3FF8
3FF8
03C0
03C0
03C0
03C0
ENDCHAR

STARTCHAR char158
ENCODING 158
SWIDTH 871 0
DWIDTH 23 0
BBX 10 17 6 2
BITMAP
FE00
E700
E380
E380
E380
E380
E700
FE00
E000
E300
E300
EFC0
E300
E300
E300
E300
F3C0
ENDCHAR

STARTCHAR char159
ENCODING 159
SWIDTH 871 0
DWIDTH 23 0
BBX 12 15 4 2
BITMAP
03E0
0770
0E70
0E00
0E00
0E00
0E00
FFE0
0E00
0E00
0E00
0E00
0E00
3C00
3C00
ENDCHAR

STARTCHAR char225
ENCODING 160
SWIDTH 871 0
DWIDTH 23 0
BBX 14 19 2 0
BITMAP
03C0
0780
0F00
1E00
0000
1FC0
7FE0
61F0
00F0
00F0
00F0
1FF0
7FF0
78F0
F0F0
F0F0
F9F0
7FFC
3F7C
ENDCHAR

STARTCHAR char237
ENCODING 161
SWIDTH 871 0
DWIDTH 23 0
BBX 10 19 2 0
BITMAP
03C0
0780
0F00
1E00
0000
FF80
FF80
0780
0780
0780
0780
0780
0780
0780
0780
0780
0780
0780
0780
ENDCHAR

STARTCHAR char243
ENCODING 162
SWIDTH 871 0
DWIDTH 23 0
BBX 14 19 1 0
BITMAP
03C0
0780
0F00
1E00
0000
0FC0
3FF0
7CF8
7878
F03C
F03C
F03C
F03C
F03C
F03C
7878
7CF8
3FF0
0FC0
ENDCHAR

STARTCHAR char249
ENCODING 163
SWIDTH 871 0
DWIDTH 23 0
BBX 12 19 2 0
BITMAP
1E00
0F00
0780
03C0
0000
F0F0
F0F0
F0F0
F0F0
F0F0
F0F0
F0F0
F0F0
F0F0
F1F0
F3F0
FFF0
7FF0
3CF0
ENDCHAR

STARTCHAR char241
ENCODING 164
SWIDTH 871 0
DWIDTH 23 0
BBX 12 18 2 0
BITMAP
3DC0
7FC0
7780
0000
F3C0
FFE0
FFF0
FCF0
F8F0
F0F0
F0F0
F0F0
F0F0
F0F0
F0F0
F0F0
F0F0
F0F0
ENDCHAR

STARTCHAR char209
ENCODING 165
SWIDTH 871 0
DWIDTH 23 0
BBX 13 23 2 0
BITMAP
1EE0
3FE0
3BC0
0000
F038
F038
F838
FC38
FC38
FE38
FE38
FF38
EF38
EFB8
E7B8
E7F8
E3F8
E3F8
E1F8
E0F8
E0F8
E078
E078
ENDCHAR

STARTCHAR char170
ENCODING 166
SWIDTH 871 0
DWIDTH 23 0
BBX 10 11 3 7
BITMAP
7F00
FF80
0380
3F80
7F80
E380
E380
FFC0
7BC0
0000
FFC0
ENDCHAR

STARTCHAR char186
ENCODING 167
SWIDTH 871 0
DWIDTH 23 0
BBX 11 11 3 7
BITMAP
1F00
7FC0
F1E0
E0E0
E0E0
E0E0
F1E0
7FC0
1F00
0000
FFE0
ENDCHAR

STARTCHAR char191
ENCODING 168
SWIDTH 871 0
DWIDTH 23 0
BBX 13 20 2 -3
BITMAP
03C0
03C0
03C0
0000
0000
03C0
03C0
03C0
03C0
0780
0F00
1E00
3C00
7800
F000
F038
F038
F838
7FF8
1FF0
ENDCHAR

STARTCHAR char172
ENCODING 169
SWIDTH 871 0
DWIDTH 23 0
BBX 14 7 1 3
BITMAP
FFFC
FFFC
E000
E000
E000
E000
E000
ENDCHAR

STARTCHAR char172
ENCODING 170
SWIDTH 871 0
DWIDTH 23 0
BBX 14 7 1 3
BITMAP
FFFC
FFFC
001C
001C
001C
001C
001C
ENDCHAR

STARTCHAR char189
ENCODING 171
SWIDTH 871 0
DWIDTH 23 0
BBX 17 19 3 0
BITMAP
380780
F80F00
180E00
181E00
183C00
183800
187000
18F000
FFE000
01C000
039F00
079980
070180
0E0180
1E0300
3C0600
380C00
701C00
F01F80
ENDCHAR

STARTCHAR char188
ENCODING 172
SWIDTH 871 0
DWIDTH 23 0
BBX 17 19 3 0
BITMAP
380780
F80F00
180E00
181E00
183C00
183800
187000
18F000
FFE000
01C000
038700
078700
070F00
0E0F00
1E1B00
3C3300
383F80
700300
F00300
ENDCHAR

STARTCHAR char161
ENCODING 173
SWIDTH 871 0
DWIDTH 23 0
BBX 4 19 8 -1
BITMAP
F0
F0
F0
00
00
F0
F0
F0
F0
F0
F0
F0
F0
F0
F0
F0
F0
F0
F0
ENDCHAR

STARTCHAR char171
ENCODING 174
SWIDTH 871 0
DWIDTH 23 0
BBX 13 11 1 1
BITMAP
0630
0F78
1CF0
3DE0
7BC0
F780
7BC0
3DE0
1CF0
0E78
0730
ENDCHAR

STARTCHAR char187
ENCODING 175
SWIDTH 871 0
DWIDTH 23 0
BBX 13 12 2 1
BITMAP
6700
F380
7BC0
39E0
1CF0
1E78
1F78
1CF0
39E0
7BC0
F780
6300
ENDCHAR

STARTCHAR char176
ENCODING 176
SWIDTH 871 0
DWIDTH 23 0
BBX 14 29 2 -5
BITMAP
DB6C
0000
DB6C
0000
DB6C
0000
DB6C
0000
DB6C
0000
DB6C
0000
DB6C
0000
DB6C
0000
DB6C
0000
DB6C
0000
DB6C
0000
DB6C
0000
DB6C
0000
DB6C
0000
DBFC
ENDCHAR

STARTCHAR char177
ENCODING 177
SWIDTH 871 0
DWIDTH 23 0
BBX 14 26 1 -4
BITMAP
FFFC
FFFC
0000
FFFC
FFFC
0000
FFFC
FFFC
0000
FFFC
FFFC
0000
FFFC
FFFC
0000
FFFC
FFFC
0000
FFFC
FFFC
0000
FFFC
FFFC
0000
FFFC
FFFC
ENDCHAR

STARTCHAR char178
ENCODING 178
SWIDTH 871 0
DWIDTH 23 0
BBX 15 26 1 -4
BITMAP
EDB6
EDB6
0000
EDB6
EDB6
0000
EDB6
EDB6
0000
EDB6
EDB6
0000
EDB6
EDB6
0000
EDB6
EDB6
0000
EDB6
EDB6
0000
EDB6
EDB6
0000
EDB6
EDB6
ENDCHAR

STARTCHAR char179
ENCODING 179
SWIDTH 871 0
DWIDTH 23 0
BBX 2 29 9 -5
BITMAP
C0
C0
C0
C0
C0
C0
C0
C0
C0
C0
C0
C0
C0
C0
C0
C0
C0
C0
C0
C0
C0
C0
C0
C0
C0
C0
C0
C0
C0
ENDCHAR

STARTCHAR char180
ENCODING 180
SWIDTH 871 0
DWIDTH 23 0
BBX 14 29 -3 -5
BITMAP
000C
000C
000C
000C
000C
000C
000C
000C
000C
000C
000C
FFFC
FFFC
000C
000C
000C
000C
000C
000C
000C
000C
000C
000C
000C
000C
000C
000C
000C
000C
ENDCHAR

STARTCHAR char181
ENCODING 181
SWIDTH 871 0
DWIDTH 23 0
BBX 14 29 -3 -5
BITMAP
000C
000C
000C
000C
000C
000C
000C
000C
000C
000C
FFFC
FFFC
000C
FFFC
FFFC
000C
000C
000C
000C
000C
000C
000C
000C
000C
000C
000C
000C
000C
000C
ENDCHAR

STARTCHAR char182
ENCODING 182
SWIDTH 871 0
DWIDTH 23 0
BBX 15 29 -3 -5
BITMAP
0036
0036
0036
0036
0036
0036
0036
0036
0036
0036
FFF6
FFF6
0006
FFF6
FFF6
0036
0036
0036
0036
0036
0036
0036
0036
0036
0036
0036
0036
0036
0036
ENDCHAR

STARTCHAR char183
ENCODING 183
SWIDTH 871 0
DWIDTH 23 0
BBX 15 18 -3 -5
BITMAP
FFFE
FFFE
0036
0036
0036
0036
0036
0036
0036
0036
0036
0036
0036
0036
0036
0036
0036
0036
ENDCHAR

STARTCHAR char184
ENCODING 184
SWIDTH 871 0
DWIDTH 23 0
BBX 14 19 -3 -5
BITMAP
FFFC
FFFC
000C
FFFC
FFFC
000C
000C
000C
000C
000C
000C
000C
000C
000C
000C
000C
000C
000C
000C
ENDCHAR

STARTCHAR char185
ENCODING 185
SWIDTH 871 0
DWIDTH 23 0
BBX 15 29 -3 -5
BITMAP
0036
0036
0036
0036
0036
0036
0036
0036
0036
0036
FFF6
FFF6
0006
FFF6
FFF6
0036
0036
0036
0036
0036
0036
0036
0036
0036
0036
0036
0036
0036
0036
ENDCHAR

STARTCHAR char186
ENCODING 186
SWIDTH 871 0
DWIDTH 23 0
BBX 5 29 7 -5
BITMAP
D8
D8
D8
D8
D8
D8
D8
D8
D8
D8
D8
D8
D8
D8
D8
D8
D8
D8
D8
D8
D8
D8
D8
D8
D8
D8
D8
D8
D8
ENDCHAR

STARTCHAR char187
ENCODING 187
SWIDTH 871 0
DWIDTH 23 0
BBX 15 19 -3 -5
BITMAP
FFFE
FFFE
0006
FFF6
FFF6
0036
0036
0036
0036
0036
0036
0036
0036
0036
0036
0036
0036
0036
0036
ENDCHAR

STARTCHAR char188
ENCODING 188
SWIDTH 871 0
DWIDTH 23 0
BBX 15 15 -3 9
BITMAP
0036
0036
0036
0036
0036
0036
0036
0036
0036
0036
FFF6
FFF6
0006
FFFE
FFFE
ENDCHAR

STARTCHAR char189
ENCODING 189
SWIDTH 871 0
DWIDTH 23 0
BBX 15 14 -3 10
BITMAP
0036
0036
0036
0036
0036
0036
0036
0036
0036
0036
0036
0036
FFFE
FFFE
ENDCHAR

STARTCHAR char190
ENCODING 190
SWIDTH 871 0
DWIDTH 23 0
BBX 14 15 -3 9
BITMAP
000C
000C
000C
000C
000C
000C
000C
000C
000C
000C
FFFC
FFFC
000C
FFFC
FFFC
ENDCHAR

STARTCHAR char191
ENCODING 191
SWIDTH 871 0
DWIDTH 23 0
BBX 14 18 -3 -5
BITMAP
FFFC
FFFC
000C
000C
000C
000C
000C
000C
000C
000C
000C
000C
000C
000C
000C
000C
000C
000C
ENDCHAR

STARTCHAR char192
ENCODING 192
SWIDTH 871 0
DWIDTH 23 0
BBX 11 14 9 10
BITMAP
C000
C000
C000
C000
C000
C000
C000
C000
C000
C000
C000
C000
FFE0
FFE0
ENDCHAR

STARTCHAR char193
ENCODING 193
SWIDTH 871 0
DWIDTH 23 0
BBX 23 14 -3 10
BITMAP
000C00
000C00
000C00
000C00
000C00
000C00
000C00
000C00
000C00
000C00
000C00
000C00
FFFFFE
FFFFFE
ENDCHAR

STARTCHAR char194
ENCODING 194
SWIDTH 871 0
DWIDTH 23 0
BBX 23 18 -3 -5
BITMAP
FFFFFE
FFFFFE
000C00
000C00
000C00
000C00
000C00
000C00
000C00
000C00
000C00
000C00
000C00
000C00
000C00
000C00
000C00
000C00
ENDCHAR

STARTCHAR char195
ENCODING 195
SWIDTH 871 0
DWIDTH 23 0
BBX 11 29 9 -5
BITMAP
C000
C000
C000
C000
C000
C000
C000
C000
C000
C000
C000
FFE0
FFE0
C000
C000
C000
C000
C000
C000
C000
C000
C000
C000
C000
C000
C000
C000
C000
C000
ENDCHAR

STARTCHAR char196
ENCODING 196
SWIDTH 871 0
DWIDTH 23 0
BBX 23 2 -3 11
BITMAP
FFFFFE
FFFFFE
ENDCHAR

STARTCHAR char197
ENCODING 197
SWIDTH 871 0
DWIDTH 23 0
BBX 23 29 -3 -5
BITMAP
000C00
000C00
000C00
000C00
000C00
000C00
000C00
000C00
000C00
000C00
000C00
FFFFFE
FFFFFE
000C00
000C00
000C00
000C00
000C00
000C00
000C00
000C00
000C00
000C00
000C00
000C00
000C00
000C00
000C00
000C00
ENDCHAR

STARTCHAR char198
ENCODING 198
SWIDTH 871 0
DWIDTH 23 0
BBX 11 29 9 -5
BITMAP
C000
C000
C000
C000
C000
C000
C000
C000
C000
C000
FFE0
FFE0
C000
FFE0
FFE0
C000
C000
C000
C000
C000
C000
C000
C000
C000
C000
C000
C000
C000
C000
ENDCHAR

STARTCHAR char199
ENCODING 199
SWIDTH 871 0
DWIDTH 23 0
BBX 13 29 7 -5
BITMAP
D800
D800
D800
D800
D800
D800
D800
D800
D800
D800
D800
DFF8
DFF8
D800
D800
D800
D800
D800
D800
D800
D800
D800
D800
D800
D800
D800
D800
D800
D800
ENDCHAR

STARTCHAR char200
ENCODING 200
SWIDTH 871 0
DWIDTH 23 0
BBX 13 15 7 9
BITMAP
D800
D800
D800
D800
D800
D800
D800
D800
D800
D800
DFF8
DFF8
C000
FFF8
FFF8
ENDCHAR

STARTCHAR char201
ENCODING 201
SWIDTH 871 0
DWIDTH 23 0
BBX 13 19 7 -5
BITMAP
FFF8
FFF8
C000
DFF8
DFF8
D800
D800
D800
D800
D800
D800
D800
D800
D800
D800
D800
D800
D800
D800
ENDCHAR

STARTCHAR char202
ENCODING 202
SWIDTH 871 0
DWIDTH 23 0
BBX 22 15 -3 9
BITMAP
003600
003600
003600
003600
003600
003600
003600
003600
003600
003600
FFF7FC
FFF7FC
000000
FFFFFC
FFFFFC
ENDCHAR

STARTCHAR char203
ENCODING 203
SWIDTH 871 0
DWIDTH 23 0
BBX 22 19 -3 -5
BITMAP
FFFFFC
FFFFFC
000000
FFF7FC
FFF7FC
003600
003600
003600
003600
003600
003600
003600
003600
003600
003600
003600
003600
003600
003600
ENDCHAR

STARTCHAR char204
ENCODING 204
SWIDTH 871 0
DWIDTH 23 0
BBX 13 29 7 -5
BITMAP
D800
D800
D800
D800
D800
D800
D800
D800
D800
D800
DFF8
DFF8
C000
DFF8
DFF8
D800
D800
D800
D800
D800
D800
D800
D800
D800
D800
D800
D800
D800
D800
ENDCHAR

STARTCHAR char205
ENCODING 205
SWIDTH 871 0
DWIDTH 23 0
BBX 23 5 -3 9
BITMAP
FFFFFE
FFFFFE
000000
FFFFFE
FFFFFE
ENDCHAR

STARTCHAR char206
ENCODING 206
SWIDTH 871 0
DWIDTH 23 0
BBX 23 29 -3 -5
BITMAP
003600
003600
003600
003600
003600
003600
003600
003600
003600
003600
FFF7FE
FFF7FE
000000
FFF7FE
FFF7FE
003600
003600
003600
003600
003600
003600
003600
003600
003600
003600
003600
003600
003600
003600
ENDCHAR

STARTCHAR char207
ENCODING 207
SWIDTH 871 0
DWIDTH 23 0
BBX 23 15 -3 9
BITMAP
000C00
000C00
000C00
000C00
000C00
000C00
000C00
000C00
000C00
000C00
FFFFFE
FFFFFE
000000
FFFFFE
FFFFFE
ENDCHAR

STARTCHAR char208
ENCODING 208
SWIDTH 871 0
DWIDTH 23 0
BBX 23 14 -3 10
BITMAP
003600
003600
003600
003600
003600
003600
003600
003600
003600
003600
003600
003600
FFFFFE
FFFFFE
ENDCHAR

STARTCHAR char209
ENCODING 209
SWIDTH 871 0
DWIDTH 23 0
BBX 23 19 -3 -5
BITMAP
FFFFFE
FFFFFE
000000
FFFFFE
FFFFFE
000C00
000C00
000C00
000C00
000C00
000C00
000C00
000C00
000C00
000C00
000C00
000C00
000C00
000C00
ENDCHAR

STARTCHAR char210
ENCODING 210
SWIDTH 871 0
DWIDTH 23 0
BBX 23 18 -3 -5
BITMAP
FFFFFE
FFFFFE
003600
003600
003600
003600
003600
003600
003600
003600
003600
003600
003600
003600
003600
003600
003600
003600
ENDCHAR

STARTCHAR char211
ENCODING 211
SWIDTH 871 0
DWIDTH 23 0
BBX 13 13 7 11
BITMAP
D800
D800
D800
D800
D800
D800
D800
D800
D800
D800
D800
FFF8
FFF8
ENDCHAR

STARTCHAR char212
ENCODING 212
SWIDTH 871 0
DWIDTH 23 0
BBX 11 15 9 9
BITMAP
C000
C000
C000
C000
C000
C000
C000
C000
C000
C000
FFE0
FFE0
C000
FFE0
FFE0
ENDCHAR

STARTCHAR char213
ENCODING 213
SWIDTH 871 0
DWIDTH 23 0
BBX 11 19 9 -5
BITMAP
FFE0
FFE0
C000
FFE0
FFE0
C000
C000
C000
C000
C000
C000
C000
C000
C000
C000
C000
C000
C000
C000
ENDCHAR

STARTCHAR char214
ENCODING 214
SWIDTH 871 0
DWIDTH 23 0
BBX 13 18 7 -5
BITMAP
FFF8
FFF8
D800
D800
D800
D800
D800
D800
D800
D800
D800
D800
D800
D800
D800
D800
D800
D800
ENDCHAR

STARTCHAR char215
ENCODING 215
SWIDTH 871 0
DWIDTH 23 0
BBX 23 29 -3 -5
BITMAP
003600
003600
003600
003600
003600
003600
003600
003600
003600
003600
003600
FFFFFE
FFFFFE
003600
003600
003600
003600
003600
003600
003600
003600
003600
003600
003600
003600
003600
003600
003600
003600
ENDCHAR

STARTCHAR char216
ENCODING 216
SWIDTH 871 0
DWIDTH 23 0
BBX 23 29 -3 -5
BITMAP
000C00
000C00
000C00
000C00
000C00
000C00
000C00
000C00
000C00
000C00
FFFFFE
FFFFFE
000C00
FFFFFE
FFFFFE
000C00
000C00
000C00
000C00
000C00
000C00
000C00
000C00
000C00
000C00
000C00
000C00
000C00
000C00
ENDCHAR

STARTCHAR char217
ENCODING 217
SWIDTH 871 0
DWIDTH 23 0
BBX 14 13 -3 11
BITMAP
000C
000C
000C
000C
000C
000C
000C
000C
000C
000C
000C
FFFC
FFFC
ENDCHAR

STARTCHAR char218
ENCODING 218
SWIDTH 871 0
DWIDTH 23 0
BBX 11 18 9 -5
BITMAP
FFE0
FFE0
C000
C000
C000
C000
C000
C000
C000
C000
C000
C000
C000
C000
C000
C000
C000
C000
ENDCHAR

STARTCHAR char219
ENCODING 219
SWIDTH 871 0
DWIDTH 23 0
BBX 12 29 0 -5
BITMAP
FFF0
FFF0
FFF0
FFF0
FFF0
FFF0
FFF0
FFF0
FFF0
FFF0
FFF0
FFF0
FFF0
FFF0
FFF0
FFF0
FFF0
FFF0
FFF0
FFF0
FFF0
FFF0
FFF0
FFF0
FFF0
FFF0
FFF0
FFF0
FFF0
ENDCHAR

STARTCHAR char220
ENCODING 220
SWIDTH 871 0
DWIDTH 23 0
BBX 12 13 0 -5
BITMAP
FFF0
FFF0
FFF0
FFF0
FFF0
FFF0
FFF0
FFF0
FFF0
FFF0
FFF0
FFF0
FFF0
ENDCHAR

STARTCHAR char221
ENCODING 221
SWIDTH 871 0
DWIDTH 23 0
BBX 8 29 0 -5
BITMAP
FF
FF
FF
FF
FF
FF
FF
FF
FF
FF
FF
FF
FF
FF
FF
FF
FF
FF
FF
FF
FF
FF
FF
FF
FF
FF
FF
FF
FF
ENDCHAR

STARTCHAR char222
ENCODING 222
SWIDTH 871 0
DWIDTH 23 0
BBX 8 29 5 -5
BITMAP
FF
FF
FF
FF
FF
FF
FF
FF
FF
FF
FF
FF
FF
FF
FF
FF
FF
FF
FF
FF
FF
FF
FF
FF
FF
FF
FF
FF
FF
ENDCHAR

STARTCHAR char223
ENCODING 223
SWIDTH 871 0
DWIDTH 23 0
BBX 13 12 0 5
BITMAP
FFF8
FFF8
FFF8
FFF8
FFF8
FFF8
FFF8
FFF8
FFF8
FFF8
FFF8
FFF8
ENDCHAR

STARTCHAR char224
ENCODING 224
SWIDTH 871 0
DWIDTH 23 0
BBX 14 9 3 6
BITMAP
000C
3F1C
73F8
E0F0
C060
C0F0
E1F8
739C
3F0C
ENDCHAR

STARTCHAR char223
ENCODING 225
SWIDTH 871 0
DWIDTH 23 0
BBX 14 20 2 0
BITMAP
3F80
7FC0
F3E0
F1E0
F1E0
F1C0
F380
F780
F700
F780
F7C0
F3E0
F1F0
F0F8
F07C
F03C
F03C
F67C
F7F8
F3F0
ENDCHAR

STARTCHAR char226
ENCODING 226
SWIDTH 871 0
DWIDTH 23 0
BBX 9 14 4 2
BITMAP
FF00
7380
7380
7180
7000
7000
7000
7000
7000
7000
7000
7000
7000
F800
ENDCHAR

STARTCHAR char227
ENCODING 227
SWIDTH 871 0
DWIDTH 23 0
BBX 11 11 3 5
BITMAP
0060
3FC0
7B80
FB80
3B80
3B80
3B80
3B80
3B80
7B80
E000
ENDCHAR

STARTCHAR char228
ENCODING 228
SWIDTH 871 0
DWIDTH 23 0
BBX 9 13 5 5
BITMAP
FF80
E380
7180
3800
1C00
0E00
0600
0C00
1800
3000
6180
FF80
FF80
ENDCHAR

STARTCHAR char229
ENCODING 229
SWIDTH 871 0
DWIDTH 23 0
BBX 10 8 5 6
BITMAP
3FC0
7FC0
E700
E700
E700
E700
7E00
3C00
ENDCHAR

STARTCHAR char230
ENCODING 230
SWIDTH 871 0
DWIDTH 23 0
BBX 9 9 5 6
BITMAP
3B80
3B80
3B80
3B80
3B80
3F80
3F00
F800
F000
ENDCHAR

STARTCHAR char231
ENCODING 231
SWIDTH 871 0
DWIDTH 23 0
BBX 13 10 3 4
BITMAP
1FF8
7FF0
E300
0700
0700
0F00
0F00
0F00
0F00
0E00
ENDCHAR

STARTCHAR char232
ENCODING 232
SWIDTH 871 0
DWIDTH 23 0
BBX 9 15 5 4
BITMAP
FF80
FF80
1C00
1C00
3E00
6300
C180
8080
C180
6300
3E00
1C00
1C00
FF80
FF80
ENDCHAR

STARTCHAR char233
ENCODING 233
SWIDTH 871 0
DWIDTH 23 0
BBX 9 12 5 4
BITMAP
1C00
3E00
7700
6300
C180
FF80
FF80
C180
6300
7700
3E00
1C00
ENDCHAR

STARTCHAR char234
ENCODING 234
SWIDTH 871 0
DWIDTH 23 0
BBX 10 11 5 5
BITMAP
3F00
7380
E1C0
E1C0
E1C0
E1C0
E1C0
7380
3300
F3C0
F3C0
ENDCHAR

STARTCHAR char235
ENCODING 235
SWIDTH 871 0
DWIDTH 23 0
BBX 9 11 5 5
BITMAP
1F00
3F80
3980
1C00
1C00
7E00
EE00
EE00
EE00
7E00
3C00
ENDCHAR

STARTCHAR char236
ENCODING 236
SWIDTH 871 0
DWIDTH 23 0
BBX 16 7 2 6
BITMAP
7E7E
63C6
C183
C183
C183
63C6
7E7E
ENDCHAR

STARTCHAR char237
ENCODING 237
SWIDTH 871 0
DWIDTH 23 0
BBX 11 14 4 2
BITMAP
0300
0700
0700
1F00
7F80
E7C0
E6E0
7EE0
7CE0
3FC0
1F00
1C00
1C00
1800
ENDCHAR

STARTCHAR char238
ENCODING 238
SWIDTH 871 0
DWIDTH 23 0
BBX 10 12 4 5
BITMAP
1FC0
3FC0
7800
F000
E000
FFC0
FFC0
E000
F000
7800
3FC0
0FC0
ENDCHAR

STARTCHAR char239
ENCODING 239
SWIDTH 871 0
DWIDTH 23 0
BBX 7 9 7 7
BITMAP
7C
C6
C6
C6
C6
C6
C6
C6
C6
ENDCHAR

STARTCHAR char240
ENCODING 240
SWIDTH 871 0
DWIDTH 23 0
BBX 13 10 2 3
BITMAP
FFF8
FFF8
0000
0000
FFF8
FFF8
0000
0000
FFF8
FFF8
ENDCHAR

STARTCHAR char177
ENCODING 241
SWIDTH 871 0
DWIDTH 23 0
BBX 15 14 1 0
BITMAP
0380
0380
0380
0380
FFFE
FFFE
0380
0380
0380
0380
0000
0000
FFFE
FFFE
ENDCHAR

STARTCHAR char242
ENCODING 242
SWIDTH 871 0
DWIDTH 23 0
BBX 10 17 4 2
BITMAP
6000
3000
1800
0C00
0600
0300
0180
0300
0600
0C00
1800
3000
6000
C000
0000
0000
FFC0
ENDCHAR

STARTCHAR char243
ENCODING 243
SWIDTH 871 0
DWIDTH 23 0
BBX 10 18 4 2
BITMAP
0180
0300
0600
0C00
1800
3000
6000
C000
6000
3000
1800
0C00
0600
0300
0180
0000
0000
FFC0
ENDCHAR

STARTCHAR char244
ENCODING 244
SWIDTH 871 0
DWIDTH 23 0
BBX 7 17 9 -5
BITMAP
78
FC
CE
C0
C0
C0
C0
C0
C0
C0
C0
C0
C0
C0
C0
C0
C0
ENDCHAR

STARTCHAR char245
ENCODING 245
SWIDTH 871 0
DWIDTH 23 0
BBX 6 17 5 7
BITMAP
0C
0C
0C
0C
0C
0C
0C
0C
0C
0C
0C
0C
0C
0C
CC
FC
78
ENDCHAR

STARTCHAR char215
ENCODING 246
SWIDTH 871 0
DWIDTH 23 0
BBX 14 13 1 0
BITMAP
0780
0780
0780
0000
0000
0000
FFFC
FFFC
0000
0000
0780
0780
0780
ENDCHAR

STARTCHAR char126
ENCODING 247
SWIDTH 871 0
DWIDTH 23 0
BBX 15 11 2 5
BITMAP
1E0E
3F8E
73CE
71FC
7078
0000
3C1C
7F1C
E79C
E3F8
E0F0
ENDCHAR

STARTCHAR char186
ENCODING 248
SWIDTH 871 0
DWIDTH 23 0
BBX 11 10 3 9
BITMAP
1F00
7B80
71C0
E0E0
E0E0
E0E0
E0E0
71C0
7BC0
1F00
ENDCHAR

STARTCHAR char186
ENCODING 249
SWIDTH 871 0
DWIDTH 23 0
BBX 11 10 3 9
BITMAP
1F00
7F80
7FC0
FFE0
FFE0
FFE0
FFE0
7FC0
3FC0
1F00
ENDCHAR

STARTCHAR char186
ENCODING 250
SWIDTH 871 0
DWIDTH 23 0
BBX 11 10 4 3
BITMAP
1F00
3F80
7FC0
FFE0
FFE0
FFE0
FFE0
7FC0
3F80
1F00
ENDCHAR

STARTCHAR char251
ENCODING 251
SWIDTH 871 0
DWIDTH 23 0
BBX 16 10 2 5
BITMAP
00FF
01FE
01C0
01C0
FB80
3B80
1F80
0F80
0F00
0700
ENDCHAR

STARTCHAR char252
ENCODING 252
SWIDTH 871 0
DWIDTH 23 0
BBX 7 9 -3 10
BITMAP
FC
66
66
66
66
66
66
66
66
ENDCHAR

STARTCHAR char178
ENCODING 253
SWIDTH 871 0
DWIDTH 23 0
BBX 6 9 -3 10
BITMAP
F8
CC
0C
0C
18
30
60
E0
FC
ENDCHAR

STARTCHAR char222
ENCODING 254
SWIDTH 871 0
DWIDTH 23 0
BBX 8 20 5 -1
BITMAP
FF
FF
FF
FF
FF
FF
FF
FF
FF
FF
FF
FF
FF
FF
FF
FF
FF
FF
FF
FF
ENDCHAR
ENDFONT
